<svg xmlns="http://www.w3.org/2000/svg" xmlns:xlink="http://www.w3.org/1999/xlink" width="200" height="200" version="1.1"><svg xmlns="http://www.w3.org/2000/svg" xmlns:xlink="http://www.w3.org/1999/xlink" version="1.1" viewBox="0 0 200 200"><rect width="200" height="200" fill="url('#gradient')"/><defs><linearGradient id="SvgjsLinearGradient1001" gradientTransform="rotate(246 0.5 0.5)"><stop offset="0%" stop-color="#11111b"/><stop offset="100%" stop-color="#181825"/></linearGradient></defs><g><g fill="#cdd6f4" stroke="#a6adc8" stroke-width=".05"><path d="M12.71-7.60L12.71-1.76Q11.92-0.88 10.40-0.34Q8.88 0.20 7.06 0.20L7.06 0.20Q4.27 0.20 2.60-1.51Q0.93-3.22 0.81-6.27L0.81-6.27L0.80-7.50Q0.80-9.60 1.54-11.17Q2.29-12.73 3.67-13.58Q5.05-14.42 6.87-14.42L6.87-14.42Q9.52-14.42 10.99-13.21Q12.46-11.99 12.71-9.58L12.71-9.58L9.40-9.58Q9.23-10.77 8.64-11.28Q8.06-11.79 6.98-11.79L6.98-11.79Q5.69-11.79 4.99-10.69Q4.29-9.60 4.28-7.57L4.28-7.57L4.28-6.71Q4.28-4.58 5.00-3.51Q5.73-2.44 7.29-2.44L7.29-2.44Q8.63-2.44 9.29-3.04L9.29-3.04L9.29-5.24L6.90-5.24L6.90-7.60L12.71-7.60ZM23.74-14.22L25.72-5.30L27.35-14.22L30.75-14.22L27.73 0L24.18 0L22.28-8.11L20.41 0L16.87 0L13.84-14.22L17.25-14.22L18.88-5.30L20.83-14.22L23.74-14.22Z" transform="matrix(6.009781545484186,0,0,6.009781545484186,5.194326961685718,142.73380288092056)"/></g></g></svg><style>@media (prefers-color-scheme:light){:root{filter:none}}@media (prefers-color-scheme:dark){:root{filter:none}}</style></svg>